<svg viewBox="0 0 165.07 164.44" xmlns="http://www.w3.org/2000/svg"><path d="m164.93 34.92c-.2 0-.16-.29 0-.29s.19.29 0 .29zm-46.53-5.55c.36 2.13 1.64 3.99 3.49 5.09.33.19.7-.31.36-.54-3.72-2.4-3.42-7.66-2-11.29 1.63-4.42 4.73-8.42 4.83-13.42.15-2.35-.67-4.66-2.28-6.38-.51-.51-1.42.27-.9.82 3.25 3.49 1.76 8.74 0 12.55-1.93 4.2-4.46 8.4-3.5 13.17zm18.3-8.94c-.18-8.8-5.83-16.55-14.15-19.42-.47-.16-.92.64-.42.84 4.77 1.98 8.65 5.62 10.92 10.26 2.3 4.72 2.66 10.16 1 15.14-.9 2.65-2.28 5.12-4.09 7.26-.21-.05-.42.08-.47.29v.05c-.08-.17-.25-.28-.44-.29-1.05-.08-2.1-.06-3.14.08-.52.06-1 .12-1.55.22-.53.05-1.04.22-1.49.51-.14.11-.17.32-.06.46.04.06.11.1.18.12.48.06.96.04 1.43-.08.5-.06 1-.13 1.52-.16 1-.07 2-.06 3-.06.14 0 .28-.05.39-.14 0 .13.05.25.13.35.08 16.2-.12 32.41-.8 48.6-.69 16.53-2 33-3.58 49.49-.83 8.26-1.83 16.41-2.83 24.6-1.31-6.86-2.51-13.72-3.31-20.67-.9-7.89-1.4-15.83-1.52-23.77-.25-16.39 1.07-32.8 2.74-49.1.93-9.17 1.93-18.34 3-27.49 0-.41-.59-.38-.65 0-1.09 8.21-2.19 16.43-3.17 24.66s-1.77 16.41-2.38 24.63-1 16.42-1 24.64.38 15.86 1.16 23.75c.75 7.84 1.96 15.62 3.61 23.32.2 1 .45 1.91.69 2.85.05.23.24.41.48.44.12.55 1.08.44 1.18-.19 1.35-8.19 2.32-16.44 3.23-24.69s1.64-16.37 2.25-24.57c1.22-16.5 1.95-33 2.07-49.58.07-8.95-.05-17.89-.36-26.83h.06c4.2-4.05 6.52-9.68 6.38-15.52zm-107.89 4.6h-.35zm23.19 135.74c.08.47.06.94-.06 1.4-.15.39-.59.59-.98.44h-.02c-.03.43-.38.78-.81.8-3.66.16-7.33.14-11 .17h-7.28c.01.46-.35.85-.81.86-.37 0-.71-.23-.83-.58 0-.09 0-.18-.07-.28-2 0-3.93 0-5.9-.07 0 .86-1.35 1.25-1.55.3l-.06-.33c-1.65 0-3.29-.06-4.94-.11-.22.36-.68.47-1.04.26-.1-.06-.19-.15-.26-.26l-4.46-.15c-.27.61-1.32.62-1.48-.05-1.18 0-2.35-.12-3.53-.18-.3.22-.72.2-1-.05-1.8-.09-3.6-.16-5.41-.28-.32-.04-.55-.34-.51-.66.03-.27.24-.47.51-.51.49-1.64.88-3.31 1.18-5 .2-1.44.33-2.89.37-4.34-.51-.15-.44-.87 0-1.12-.42.12-.9-.05-.81-.59 1.56-9.12 2.59-18.32 3.11-27.56.51-8.2.8-16.43 1.15-24.64l1.08-25.24c.7-16.42 1.39-32.84 2.35-49.25-.29-.34-.24-.84.09-1.13 0 0 0 0 .02-.01.13-.21.39-.28.61-.17.39-.47.8-.93 1.17-1.43s.91-1.27 1.32-1.93c.83-1.35 1.54-2.78 2.12-4.26.21-.53 1.07-.37.92.2 1.82-.19 3.64-.32 5.46-.42 0-.08 0-.16 0-.24v-2.4c-.92 0-1.84-.06-2.77-.12-.14 0-.27-.06-.37-.16-.38.29-1 .29-1.12-.29-.04-.86.05-1.72.25-2.56.11-.87.22-1.73.34-2.6.24-1.72.49-3.45.73-5.18v-.09c-.07-.34.16-.67.5-.74h.13c3.75 0 7.52 0 11.27.14.23 0 .44.11.55.31.23-.23.61-.23.85 0 .07.07.12.16.15.26.42 1.47.73 3 1 4.46s.66 3 .84 4.51c.03.44-.3.83-.74.88.05.44-.26.84-.7.89h-.01l-1.31.08c-.12.31-.41.53-.74.55l.06.67.07.77v.49l1.68-.06c1.76-.07 3.58-.24 5.34-.15.3-.02.56.2.58.49v.17c.58 1.48 1.28 2.91 2.11 4.26.41.69.86 1.36 1.35 2 .37.49.78.95 1.17 1.43.16 0 .29.13.3.29v.07c.16.2.16.49 0 .69.54 9.12 1 18.25 1.39 27.38.75 16.74 1.48 33.48 2.18 50.22.7 16.47 1.27 33 4.13 49.23v.07h.44c1 0 .93 1.34.13 1.56.2.64.33 1.31.47 2 .2.91.36 1.82.5 2.74s.27 1.85.37 2.77c.15.44.2.92.23 1.4zm-42.65-119.1c2.37.44 4.75.79 7.14 1 8.38.77 16.83.14 25-1.86.16-.05.32-.05.48 0-.19-5.51-.37-11-.51-16.56.02.31-.15.59-.43.72-1.12.46-2.31.87-3.47 1.24-1.14.37-2.29.67-3.46.91-4.18.85-8.46 1-12.69.45-2.12-.27-4.22-.72-6.27-1.35-1.79-.49-3.53-1.16-5.19-2-.18 5.83-.38 11.64-.6 17.45zm14.89-40c-.1 1.56-.2 3.12-.32 4.68s-.19 2.86-.35 4.29h1.69v-4.11c0-1.6.06-3.2.11-4.8v-.09h-1.23s.07 0 .1.03zm2.43 8.89 1.93-.07c-.18-1.25-.28-2.51-.4-3.75-.15-1.67-.28-3.35-.37-5h-1.21v7.07c.06.5.12 1.15.08 1.75zm3-8.87h-.58c.14 1.61.3 3.22.5 4.83.16 1.29.39 2.58.55 3.87.53 0 1.06-.06 1.59-.11-.37-1.48-.58-3-.85-4.51s-.51-2.8-.71-4.21c-.15.1-.33.15-.51.13zm-11.57 8.88c1.41.05 2.81.07 4.22.07.09-1.43.27-2.87.41-4.3s.33-3.11.49-4.67v-.12l-1.73-.06c.18.06.28.25.24.43-.34 2.65-.67 5.3-1 8-.09.73-1.33.76-1.22 0l1.2-7.95c.03-.22.2-.4.42-.45l-2.11-.08-.48 4.77-.3 2.58c0 .4-.1.8-.14 1.2 0 .19 0 .39-.06.59h.06zm4.14 3.76v.17l3.77-.16 2.14-.08v-2.4c-2 .1-3.92.12-5.88.09 0 0-.03 2.38-.03 2.38zm-11.32 8.54c.74.32 1.48.66 2.24 1 1.04.41 2.11.77 3.19 1.07 3.92 1.11 8 1.58 12.07 1.39 2.03-.1 4.06-.36 6.05-.79 1-.21 2-.46 3-.74.98-.27 1.93-.61 2.87-1 .35-.17.78-.06 1 .27.04.08.07.18.07.27v-.7h-.05c-.6-.62-1.15-1.28-1.63-2-.48-.64-.92-1.31-1.32-2-.79-1.35-1.43-2.78-1.92-4.27-1.77.15-3.59.07-5.36.09h-5.21c-3.55 0-7.1.06-10.64-.15-.5 1.49-1.15 2.93-1.94 4.29-.41.72-.87 1.41-1.37 2.07-.36.36-.73.79-1.05 1.2zm-8.21 127.53c-.02.07-.04.13-.08.19.23-.07.47.04.56.26 3.27-.2 6.54-.37 9.82-.49 11.84-.45 23.7-.43 35.55-.09-1.63-9.01-2.69-18.11-3.17-27.25-.53-8.27-.83-16.55-1.17-24.83-.19-4.49-.37-8.98-.56-13.46-2.16.83-4.38 1.5-6.64 2-8.51 1.9-17.91 1.62-26-1.84 2.43.58 4.9 1.02 7.38 1.32 8.49 1.09 17.12.06 25.11-3h.09l-.42-10c-.42-10.35-.85-20.69-1.21-31-.08.05-.16.08-.24.11-2.36.6-4.75 1.07-7.16 1.42-8.4 1.25-16.96.98-25.27-.8-.09 2.71-.19 5.42-.29 8.13-.67 16.74-1.33 33.48-2 50.22-.72 16.37-1.16 32.92-4.3 49.11zm42.71 1.4-3.75-.08c.22 1.74.39 3.48.58 5.22.09.91.19 1.81.28 2.72.04.78.18 1.54.42 2.28h3.12c-.19-1.62-.21-3.28-.32-4.9s-.23-3.5-.33-5.24zm-13.83 10.23h4.45c-.92-3.34-1.39-6.78-1.42-10.24v-.13h-4.54c.19 3.5.69 6.97 1.51 10.37zm-28.45-5.48c-.16 1.67-.5 3.33-1 4.93l3.7.1c.06-.58.13-1.16.16-1.75 0-.82.06-1.64 0-2.47-.03-1.68-.2-3.35-.49-5-.03-.09-.03-.2 0-.29l-2.21.06c.08 1.48.02 2.95-.16 4.42zm4.19 5.08 3.15.09c.17-3.28.34-6.57.68-9.83l-4.32.12c.35 1.73.56 3.49.62 5.26.08 1.45.04 2.91-.13 4.36zm4.73.13 4.28.08c-.16-3.33-.3-6.67-.41-10l-3.56.07c0 3.3-.13 6.55-.31 9.85zm10.37.19c-.2-1.36-.35-2.75-.51-4.11-.25-2-.44-4-.6-6v-.15l-4.07.07c.2 3.37.39 6.74.59 10.11zm7.38.07c-.75-3.41-1.12-6.9-1.13-10.39l-6 .05c.21 1.94.46 3.87.73 5.8.21 1.5.5 3 .72 4.49zm11.35-.06c-.13-.56-.21-1.12-.24-1.69-.07-.95-.15-1.89-.23-2.84-.15-1.91-.31-3.83-.41-5.74h-4.29c.24 3.5.86 6.97 1.83 10.35 0 0 3.34-.08 3.34-.08zm9.13-.07h.23c-.06-.33-.1-.66-.11-1 0-.48-.08-1-.13-1.44-.09-.9-.19-1.79-.32-2.67s-.28-1.78-.43-2.66-.32-1.53-.41-2.3h-2.38c.18 1.67.34 3.35.5 5s.41 3.37.47 5.05c0 0 2.58.02 2.58.02zm-28.83-19.46c-.77-1.37-.29-3.1 1.08-3.87.09-.05.17-.09.26-.13 1.41-.62 3.05-.32 4.16.74 1.08.97 1.48 2.5 1 3.87-.53 1.42-1.94 2.31-3.44 2.17-1.3-.18-2.33-1.18-2.55-2.47-.21-.03-.39-.14-.51-.31zm1.14-1.31v.09c0 .1.03.2.06.29v.08c.03.06.06.12.09.17.03.06.04.13.05.2.19.04.34.2.36.4.1.94.93 1.62 1.87 1.55h.32l.13-.07c.06-.02.11-.05.16-.09l.23-.2c.15-.15.28-.32.38-.51.03-.06.05-.12.07-.18.03-.09.06-.18.08-.27v-.37c0-.07 0-.13 0-.2-.02-.13-.04-.26-.08-.39v-.12l-.05-.1c-.17-.42-.45-.79-.81-1.06-.19-.13-.38-.24-.59-.34l-.3-.09h-.94l-.2.05h-.06l-.29.15c-.14.09-.26.2-.36.34-.04.05-.07.1-.1.16-.05.11-.09.22-.12.34v.2s.07-.02.1-.03zm-6.89-75c-1.06-4 2.37-8.08 6.09-9.11 3.9-.89 7.98.24 10.87 3 1.41 1.23 2.33 2.93 2.57 4.79.12 2.07-.65 4.09-2.11 5.56-2.85 2.92-7.06 4.07-11 3-3.07-.89-5.33-3.5-5.77-6.67-.33-.02-.59-.26-.65-.58zm1.53-1.63c.28 0 .5.22.5.5v.11c-.47 3.71 2.68 6.73 6.21 7.09 3.13.33 6.82-1 8.63-3.64.96-1.36 1.23-3.09.73-4.67-.59-1.49-1.64-2.76-3-3.63-2.51-1.77-6.06-2.68-9.06-1.36-2.27.97-3.82 3.13-4 5.6zm60.34 74.8v.05h.3s.06-.02.06-.05zm29.37-136.55c-.51 1.72-.93 3.47-1.25 5.24-.25 1.78-.4 3.57-.42 5.36 0 .16-.08.31-.21.4.03.09.03.2 0 .29-1.56 9.12-2.59 18.32-3.11 27.56-.51 8.2-.8 16.43-1.15 24.64l-1.08 25.24c-.7 16.42-1.39 32.84-2.36 49.25.29.33.26.83-.07 1.12 0 0-.02.02-.03.02-.13.2-.39.27-.61.17-.4.47-.8.93-1.17 1.43s-.91 1.27-1.32 1.93c-.83 1.35-1.54 2.78-2.12 4.26-.21.53-1.07.37-.92-.2-1.82.19-3.64.32-5.47.42.02.08.02.16 0 .24v2.4c.93 0 1.85.06 2.77.12.14 0 .28.06.38.16.38-.29 1-.29 1.11.29.04.86-.04 1.72-.24 2.56-.12.87-.23 1.73-.35 2.6-.24 1.72-.48 3.45-.73 5.18v.09c.07.34-.16.67-.5.74-.04 0-.09 0-.13 0-3.75 0-7.52 0-11.27-.14-.23 0-.44-.11-.55-.31-.25.23-.63.22-.86-.03-.06-.07-.11-.15-.14-.23-.41-1.47-.73-3-1-4.46s-.66-3-.84-4.51c-.04-.44.29-.83.73-.88-.05-.44.28-.84.72-.89l1.54-.11c.12-.31.41-.53.74-.55 0-.22 0-.45-.07-.67l-.06-.77v-.49l-1.68.06c-1.77.07-3.58.24-5.34.15-.3.02-.56-.2-.58-.49v-.17c-.58-1.48-1.28-2.91-2.11-4.26-.42-.68-.87-1.35-1.35-2s-.78-1-1.18-1.43c-.16 0-.28-.13-.29-.29v-.07c-.16-.2-.16-.49 0-.69-.54-9.12-1-18.25-1.39-27.38-.75-16.74-1.47-33.48-2.18-50.22-.7-16.47-1.27-33-4.13-49.23v-.07h-.44c-1 0-.93-1.34-.13-1.56-.2-.64-.33-1.31-.47-1.95-.2-.91-.36-1.82-.5-2.74s-.27-1.85-.37-2.77c0-.48-.1-1-.13-1.44-.08-.47-.06-.94.06-1.4.15-.39.59-.59.98-.44h.02c.03-.43.38-.78.81-.8 3.66-.16 7.32-.14 11-.17h7.28c-.01-.46.35-.85.81-.86.37 0 .71.23.83.58 0 .09 0 .18.07.28 2 0 3.93 0 5.9.07 0-.86 1.35-1.25 1.55-.3l.06.33c1.64 0 3.29.06 4.94.11.21-.36.67-.47 1.03-.26.11.06.2.15.26.26l4.53.14c.28-.61 1.33-.62 1.49 0 1.18.05 2.35.12 3.53.18.29-.23.71-.23 1 0 1.8.09 3.6.16 5.4.28h.12c.4 0 .72.34.72.74 0 .11-.03.22-.08.32zm-7.85 0-3.15-.09c-.17 3.28-.34 6.57-.68 9.83l4.32-.12c-.35-1.73-.56-3.49-.62-5.26-.08-1.44-.04-2.88.13-4.31zm-5 9.77c0-3.3.15-6.6.31-9.9l-4.28-.08c.15 3.35.3 6.7.41 10.05zm-10.11-10.04c.21 1.36.36 2.75.52 4.11.24 2 .43 4 .6 6v.15l4.07-.08c-.2-3.36-.39-6.74-.59-10.1 0 0-4.6-.08-4.6-.08zm-7.38-.07c.75 3.41 1.14 6.9 1.14 10.39h6c-.21-1.94-.46-3.87-.73-5.8-.21-1.5-.5-3-.73-4.49 0 0-5.68-.1-5.68-.1zm-1.77 0h-4.46c.92 3.34 1.4 6.78 1.43 10.24v.13h4.54c-.19-3.5-.7-6.97-1.51-10.38zm-9.6.06c.13.56.21 1.12.24 1.69.07.95.15 1.89.22 2.84.15 1.91.31 3.83.42 5.74h4.29c-.25-3.5-.86-6.97-1.83-10.35zm-.51 10.24c-.22-1.74-.4-3.48-.58-5.22-.1-.91-.19-1.81-.28-2.72-.04-.78-.18-1.54-.43-2.28h-3.12c.2 1.62.22 3.28.33 4.9s.23 3.47.32 5.21zm-8.6-10.17c-.07 0-.15 0-.22 0 .06.33.09.66.11 1l.12 1.44c.09.89.2 1.79.33 2.67s.28 1.78.43 2.66.32 1.53.41 2.3l2.38.05c-.18-1.67-.34-3.35-.5-5s-.41-3.37-.47-5.05c0 0-2.59-.07-2.59-.07zm41 120.22c-2.37-.44-4.75-.79-7.15-1-8.36-.76-16.79-.14-24.94 1.86-.16.05-.32.05-.48 0 .19 5.51.36 11.02.51 16.55-.02-.3.15-.58.43-.71 1.12-.46 2.31-.87 3.47-1.24 1.14-.37 2.29-.67 3.46-.91 6.31-1.28 12.84-.97 19 .9 1.79.49 3.53 1.16 5.19 2 .09-5.83.24-11.64.46-17.45zm-14.93 40c.11-1.56.21-3.12.33-4.68s.18-2.86.35-4.29h-1.69c0 .57 0 1.17-.05 1.72v2.39c0 1.6 0 3.2-.1 4.8v.09h1.22s-.11 0-.11-.03zm-2.42-8.89-1.93.07c.18 1.25.28 2.51.39 3.75.16 1.67.28 3.35.38 5h1.25v-7.07c-.12-.5-.18-1.15-.14-1.75zm-3 8.87h.58c-.14-1.61-.3-3.22-.5-4.83-.16-1.29-.39-2.58-.55-3.87-.53 0-1.06.06-1.59.11v.05c.37 1.48.57 3 .85 4.51s.51 2.8.7 4.21c.14-.12.32-.18.5-.18zm11.56-8.88c-1.41 0-2.82-.07-4.23-.07-.08 1.43-.26 2.87-.4 4.3s-.33 3.11-.5 4.67v.12l1.73.06c-.18-.06-.28-.25-.24-.43.33-2.67.66-5.32 1-7.95.09-.73 1.33-.76 1.22 0l-1.2 7.95c-.03.22-.2.4-.42.45l2.11.08.51-4.81.3-2.59c0-.4.09-.8.14-1.2l.06-.59h-.08zm-4.17-3.76v-.17l-3.77.16-2.15.08v2.4c2-.1 3.93-.12 5.89-.09zm11.35-8.54c-.74-.32-1.48-.66-2.24-1-1.04-.41-2.11-.77-3.19-1.07-5.9-1.68-12.12-1.89-18.12-.6-1 .21-2 .46-3 .74-.98.28-1.93.61-2.87 1-.35.18-.78.06-1-.27-.05-.08-.07-.18-.07-.27v.7c.6.62 1.15 1.28 1.63 2 .48.64.92 1.31 1.32 2 .78 1.36 1.42 2.79 1.92 4.27 1.77-.15 3.59-.07 5.36-.09l5.2-.05c3.55 0 7.1-.06 10.65.15.52-1.49 1.19-2.93 2-4.29.41-.71.87-1.41 1.36-2.07.35-.31.69-.74 1.04-1.15zm8.6-128h-.12c-3.52.22-7 .4-10.56.53-11.84.45-23.7.43-35.55.09 1.62 9 2.67 18.1 3.15 27.23.53 8.27.83 16.55 1.17 24.83l.56 13.46c2.16-.83 4.38-1.5 6.64-2 8.51-1.9 17.91-1.62 26 1.84-2.43-.58-4.9-1.02-7.38-1.32-8.49-1.09-17.12-.06-25.11 3h-.09c.14 3.33.27 6.65.41 10 .43 10.35.84 20.68 1.22 31 .07-.04.15-.08.23-.11 10.62-2.67 21.71-2.88 32.43-.62l.3-8.13c.67-16.74 1.33-33.48 2-50.22.68-16.4 1.11-33 4.26-49.14.06-.22.22-.39.43-.47v.03zm1.12-10.58-4.56-.13c-.06.58-.13 1.16-.16 1.75-.05.82-.06 1.64-.05 2.47.04 1.68.21 3.35.5 5 .03.09.03.2 0 .29l3.1-.08c-.08-1.47-.03-2.95.15-4.42.17-1.66.51-3.29 1.02-4.88zm-20.23 19c.77 1.36.3 3.09-1.06 3.86-.09.05-.19.1-.29.14-1.41.62-3.04.32-4.15-.74-1.09-.97-1.48-2.5-1-3.87.53-1.4 1.91-2.27 3.4-2.15 1.3.18 2.33 1.18 2.55 2.47.2.03.39.14.51.31 0 0 .04-.02.04-.02zm-1.14 1.31v-.07c-.01-.1-.03-.2-.06-.29v-.08l-.09-.17c-.03-.06-.05-.13-.06-.2-.19-.04-.33-.2-.35-.4-.1-.94-.93-1.62-1.87-1.55h-.32l-.13.07c-.06.03-.12.06-.17.09l-.22.2c-.15.15-.28.32-.38.51-.03.06-.05.12-.07.18-.04.09-.06.18-.08.27v.57c.01.13.04.26.07.39v.12s0 .09.05.1c.17.42.44.78.8 1.06.19.13.39.24.6.34l.3.09h.94l.2-.05h.06l.29-.15c.14-.09.26-.2.36-.34l.1-.16c.05-.11.09-.22.12-.34v-.2s-.09.02-.13.03zm6.89 75c1.06 4-2.37 8.08-6.09 9.11-3.9.89-7.98-.24-10.87-3-1.43-1.24-2.35-2.96-2.57-4.84-.11-2.07.65-4.08 2.1-5.56 2.85-2.92 7.06-4.07 11-3 3.07.89 5.33 3.5 5.77 6.67.34.04.6.31.62.65 0 0 .04-.03.04-.03zm-1.57 1.62c-.28 0-.5-.22-.5-.5 0-.04 0-.08.01-.11.47-3.71-2.68-6.73-6.21-7.09-3.13-.33-6.82 1-8.63 3.64-.96 1.36-1.24 3.08-.74 4.67.6 1.49 1.65 2.76 3 3.63 2.57 1.77 6.16 2.68 9.12 1.36 2.23-1 3.73-3.14 3.91-5.57z" fill="#ccc"/></svg>