<svg viewBox="0 0 120.84 167.9" xmlns="http://www.w3.org/2000/svg"><path d="m93.18 84.29c-2.53-5-5-10-7.58-15-5.25-10.28-10.4-20.62-15.84-30.8-2.62-4.91-5.34-9.76-8.2-14.53v-.25c0-.82-1.32-.78-1.28 0v.38c-5.26 9.22-10.25 18.61-15.16 28.04-5.4 10.37-10.76 20.75-16.09 31.16-2.67 5.2-5.43 10.38-7.9 15.68-.63 1.35 1.58 2.08 2.27.92 2.63-4.38 4.9-9 7.24-13.52 2.65-5.15 5.27-10.33 7.8-15.54l15.27-31.48c2.21-4.59 4.4-9.11 6.61-13.66.06 2.42 0 4.84 0 7.26v15.15l-.09 17.27c0 5.2-.07 10.41-.06 15.61 0 3.34 0 6.69.12 10-.57.04-1.14.13-1.69.27-3.83 1.12-6.62 4.42-7.11 8.38-.51 4.51 2.02 8.81 6.21 10.54h.14c-.04.17.06.33.23.37h.09c3.96.21 7.77-1.55 10.16-4.71 2.23-3.22 2.38-7.44.38-10.81-1.54-2.3-4.04-3.77-6.79-4-.11-2.81-.1-5.63-.11-8.44v-48.04c0-2.91 0-5.82-.11-8.74 4.53 8.89 8.76 17.94 13 27 5 10.45 9.83 20.92 15 31.24 2.57 5.11 5.15 10.27 8.21 15.1.83 1.31 3 .19 2.3-1.22-2.27-4.63-4.72-9.1-7.02-13.64zm-25.55 19.89c-1.82 3.35-5.26 5.51-9.07 5.68.23-.3.17-.72-.12-.95-.02-.02-.04-.03-.07-.05-2.75-1.68-5-4.42-5.13-7.75-.13-3.3 1.7-6.37 4.67-7.82 2.98-1.29 6.44-.57 8.67 1.79 2.1 2.57 2.51 6.12 1.05 9.1zm32-3.31c-1.04 3.43-2.16 6.84-3.35 10.21-2.12 6-4.47 11.93-7.06 17.8-1.29 2.92-2.64 5.81-4.06 8.68-1.36 2.9-2.86 5.72-4.52 8.46l5.2.23c2 .1 4 .15 6 .43.54.12.88.66.76 1.2v.02c-.12.58-.63 1-1.22 1-2.23.07-4.48-.15-6.72-.26s-4.47-.21-6.71-.3c-15.81-.68-31.65-1-47.48-1.19-.23 3.09-.46 6.17-.68 9.26-.12 1.57-.23 3.13-.35 4.7 0 1.47-.16 2.94-.49 4.38 1.9-.23 3.82-.27 5.73-.35 2.37-.11 4.75-.22 7.12-.28 8.45-.21 16.9-.3 25.35-.28 4.24 0 8.48.03 12.73.1l6.45.08c1.65 0 3.33 0 5 .12 0-.14.05-.28.06-.41l.3-2.42c.19-1.66.34-3.32.48-5s.24-3.32.31-5c0-.85.09-1.7.14-2.56 0-.84.1-1.67.26-2.49.12-.39.54-.6.93-.48.23.07.41.25.48.48.13.46.21.93.25 1.41.06.39.07.8.1 1.2.06.85.11 1.7.12 2.56 0 1.67 0 3.33-.07 5s-.22 3.4-.39 5.1c-.09.85-.2 1.69-.32 2.54-.05.89-.28 1.77-.68 2.57-.34.53-1.05.68-1.58.34-.19-.12-.33-.29-.42-.49h-2.66l-3.62-.06-7.11-.09c-8.4-.09-16.81-.14-25.21-.08-4.24 0-8.48.06-12.72.05h-6.28c-2.08.07-4.17 0-6.24-.21-.4-.05-.48-.44-.36-.75-.1-.12-.17-.26-.2-.41-.14-1.57-.07-3.16.21-4.71.13-1.53.27-3.06.4-4.58.27-3.09.55-6.18.82-9.28.02-.2.1-.39.23-.54.01-.49.41-.88.9-.88.1 0 .2.02.29.06.17-.33.52-.54.89-.54 3.46-.04 6.92-.06 10.39-.07-1.63-2.62-3-5.39-4.44-8.13-5.81-11.37-10.7-23.19-14.64-35.34-.36-1.1 1.52-1.6 1.9-.47 1.14 3.38 2.35 6.71 3.63 10 2.26 5.86 4.75 11.62 7.46 17.29 1.33 2.87 2.75 5.72 4.25 8.54 1.4 2.69 2.92 5.32 4.24 8h.66c8 0 15.93.18 23.89.43 3.64.12 7.27.26 10.91.41-.08-.19-.08-.41 0-.6 1.49-3.25 3.23-6.38 4.8-9.59 5.59-11.42 10.31-23.24 14.14-35.36.37-1.05 2.22-.66 1.85.55zm19.33-85.74c0 .95 1.28.84 1.45 0 .37-2.42.5-4.87.39-7.32 0-1.2-.05-2.4-.13-3.6-.05-1.22-.17-2.43-.37-3.63-.08-.29-.39-.46-.68-.38-.07.02-.14.06-.2.11-.12-.1-.27-.16-.42-.17-1.34-.04-2.67 0-4 .15l-3.72.22c-2.41.15-4.83.33-7.24.5-.3-.15-.67-.06-.86.22-.26.21-.3.6-.09.86v7.14l-33.77-.16h-1.56c0-.37-.02-.75-.08-1.12-.64-3.28-3.36-5.75-6.69-6.05-2.71-.19-5.31 1.15-6.72 3.48-.07.04-.13.11-.17.18-.61 1.06-.96 2.25-1 3.47l-17.61-.05h-18.72c0-2.52 0-5-.11-7.53.2-.13.32-.35.34-.59.03-.44-.3-.81-.74-.84h-.25c-.11-.03-.22-.03-.33 0-4.73.35-9.45 1-14.16 1.51-.43.06-.72.46-.66.88v.02c-.42-.06-.8.23-.86.64v.1c.16 2.48.32 5 .51 7.45s.3 5 .64 7.42c.11.79 1.44.58 1.42-.17-.07-2.5-.35-5-.58-7.49s-.48-5-.74-7.52v-.09h.22c4.59-.31 9.21-.58 13.79-1.07 0 2.52-.09 5.05-.21 7.56s-.36 4.79-.4 7.19c-1.84 0-3.67.08-5.51.17-1 0-1.91.13-2.87.19-1.02 0-2.03.13-3 .42-.45.21-.65.74-.44 1.19.11.24.31.41.56.49.93.09 1.86.04 2.77-.15 1-.11 2-.21 3-.34 1.8-.22 3.6-.43 5.39-.78v.25c0 1 1.31.86 1.48 0 .44-2.4.66-4.84.65-7.28l32.45.31c-1.14.33-2.26.72-3.36 1.17-9.27 3.91-16.7 11.22-20.77 20.42-.76 1.68-1.41 3.42-1.93 5.19-.27.94-.5 1.9-.69 2.86-.07.4-.15.81-.21 1.21-3.06-.52-6.1.98-7.54 3.73-.33-.18-.73-.05-.91.27 0 .02-.02.05-.03.07-1.03 2.82-.34 5.98 1.77 8.11 2.92 2.81 7.57 2.71 10.38-.21 1.48-1.54 2.22-3.66 2.01-5.79-.29-2.26-1.63-4.25-3.61-5.37.12-.49.21-1 .33-1.48.19-.8.4-1.59.62-2.38 1.27-4.55 3.35-8.83 6.14-12.63 3.76-5.09 8.7-9.19 14.4-11.95 2.43-1.21 4.98-2.19 7.6-2.92.27 1.09.8 2.1 1.54 2.95 2.72 3.02 7.38 3.25 10.4.53 1.06-.96 1.82-2.21 2.18-3.59h1.61c2.22.59 4.39 1.34 6.49 2.27 2.95 1.29 5.73 2.91 8.31 4.83 6.4 4.9 11.14 11.65 13.57 19.33.26.84.5 1.69.73 2.54.08.29.15.58.21.87-1.55.42-2.9 1.36-3.84 2.66-.91 1.22-1.61 3.12-1 4.6.11.26.36.45.65.47.25 1.52 1.06 2.89 2.28 3.83 2.86 2.05 6.84 1.38 8.89-1.48 1.45-2.03 1.58-4.71.34-6.87-1.08-1.81-2.91-3.04-5-3.35-.05-.29-.11-.59-.17-.88-.17-.87-.38-1.72-.63-2.57-.49-1.59-1.06-3.14-1.73-4.66-1.32-3.01-2.99-5.85-5-8.45-4.09-5.26-9.46-9.39-15.6-12-.92-.39-1.85-.73-2.79-1l9.23.08 19.09.14h.18v2.49c-.04 1.39.03 2.77.2 4.15.14.83 1.37.56 1.45-.18v-.3c1.13.16 2.27.2 3.41.13h7.54c1.27.03 2.54-.03 3.8-.2.67-.12.88-1.27.1-1.39-1.21-.15-2.43-.19-3.64-.13-1.28 0-2.56.05-3.84.08l-3.72.1c-1.21-.02-2.41.08-3.6.31 0-.94-.06-1.89-.1-2.81l-.14-4.21c-.09-2.44-.22-4.89-.39-7.32 2.34-.08 4.68-.14 7-.24l3.84-.17c1.31 0 2.62-.09 3.92-.26h.08c0 .95.08 1.91.08 2.87v3.54c0 2.39-.29 4.83-.25 7.2zm-93.51 32.46c.5 2.13-.34 4.35-2.13 5.61-1.84 1.12-4.16 1.12-6 0-1.88-1.24-2.92-3.43-2.67-5.67.52.33 1.22.17 1.54-.35.03-.05.06-.11.09-.17.78-1.98 2.74-3.25 4.87-3.16 2.05.27 3.75 1.74 4.3 3.74zm77.64-2.83c1.27 1.55 1.27 3.79 0 5.34-1.26 1.46-3.31 1.96-5.1 1.23-1.37-.62-2.36-1.86-2.65-3.34v-.05c.13-.48.15-1 .28-1.46.13-.49.34-.95.61-1.37.48-.77 1.17-1.37 2-1.73.3-.13.62-.22.94-.25.31.18.69.18 1 0 1.14.18 2.17.76 2.92 1.63zm-39.96-31c-1.94 1.27-4.46 1.23-6.36-.11-.92-.64-1.62-1.55-2-2.6v-.13c-.13-.38-.24-.77-.31-1.16 0-.19-.06-.37-.07-.55.17-.02.34-.07.49-.17.2-.12.35-.31.41-.54.51-2.2 2.3-3.87 4.53-4.24 2.34-.13 4.49 1.29 5.27 3.5.14.42.22.86.23 1.3.03.68-.07 1.36-.28 2-.34 1.08-1.01 2.02-1.91 2.7z" fill="#ccc"/></svg>