<?xml version="1.0" encoding="UTF-8"?>
<svg id="Layer_1" xmlns="http://www.w3.org/2000/svg" version="1.1" viewBox="0 0 85.03 164.94">
  <!-- Generator: Adobe Illustrator 30.1.0, SVG Export Plug-In . SVG Version: 2.1.1 Build 136)  -->
  <defs>
    <style>
      .st0 {
        fill: #ccc;
      }
    </style>
  </defs>
  <path class="st0" d="M84.88,146.73c-.29-8.67-.32-17.34-.35-26-.07-17.28-.14-34.56-.21-51.84l-.12-26.11c0-4.32-.02-8.65-.07-13v-6.54c0-1.93.14-3.87.06-5.8-.14-3.35.13-6.91-1-10.13-1.05-3.21-3.65-5.67-6.91-6.54C72.77-.23,68.94.03,65.28.03,60.95.03,56.62.03,52.28.14c-8.72.14-17.43.37-26.15.43-4,0-8-.05-12-.08-1.68-.06-3.36.1-5,.46-1.67.44-3.2,1.3-4.45,2.5C2.35,5.54.78,8.36.24,11.45-.08,14.31-.08,17.21.24,20.07c.21,4,.11,8,.14,12,0,4.34.02,8.67.07,13,.08,17.41.16,34.83.23,52.24l.11,26.14c0,5.06.13,10.12.12,15.18-.18.28-.18.63,0,.91,0,3.14-.09,6.27-.25,9.4-.19,3.64-.42,7.58,1.48,10.84,1.76,3,4.91,4.48,8.26,4.91,2.96.25,5.93.32,8.9.19h8.61l38.54-.15h7.61c1.18,0,1.41-1.84.14-1.83-11.9.07-23.81.12-35.72.16l-17.97-.02c-2.73,0-5.49.13-8.22,0-3.3-.17-6.71-1.13-8.49-4.16-1.9-3.24-1.45-7.26-1.25-10.85.15-2.7.18-5.39.17-8.08,4.82.34,9.67.39,14.49.52,5.15.13,10.31.24,15.46.33,10.43.16,20.88.13,31.31,0,2.91,0,5.83-.1,8.74-.16,2.91-.06,5.91-.07,8.86-.24.65,0,1.21-.49,1.29-1.14.03-.61-.44-1.12-1.05-1.15-.02,0-.05,0-.07,0-5.23,0-10.48.19-15.71.26s-10.31.12-15.47.15c-10.44.06-20.88.03-31.33-.09-5.5-.06-11-.28-16.52-.22v-2.49c-.05-8.41-.09-16.81-.13-25.22-.08-16.91-.16-33.81-.23-50.72-.04-8.47-.08-16.94-.13-25.4,0-3.23,0-6.47-.06-9.7,2.39-.21,4.83-.09,7.21-.1h7.73l15.59-.14,31.05-.28,17.59-.15c1.06,0,1.26-1.66.13-1.64l-31.18.3-31.06.3-8.72.03-4.37.06c-1.32,0-2.65.08-4,0v-1.2c-.06-2.83-.45-5.66-.28-8.5.1-2.95,1.26-5.76,3.27-7.91,1.13-1.3,2.6-2.26,4.24-2.76,1.56-.36,3.16-.5,4.76-.43,8.14.13,16.27.1,24.38-.08,8.45-.16,16.89-.36,25.33-.37,3.63,0,7.49-.29,11.06.5,1.64.32,3.17,1.09,4.4,2.22,1.13,1.18,1.94,2.63,2.32,4.22.38,1.67.56,3.37.56,5.08.05,1.64.17,3.3.13,4.93-.11,4-.08,8.1-.05,12.15.05,8.44.1,16.87.13,25.3.08,16.85.16,33.7.25,50.56.04,8.43.09,16.86.15,25.29,0,4.2.08,8.39.26,12.58.09,2.09.17,4.17.17,6.26.08,1.97-.09,3.95-.53,5.87-.35,1.53-1.18,2.92-2.37,3.94-1.13.81-2.44,1.32-3.82,1.49-.5.07-.86.53-.79,1.03.07.5.53.86,1.03.79.04,0,.08-.01.12-.02,3.05-.5,5.64-2.49,6.92-5.3,1.63-3.67,1.24-8.06,1.1-11.97Z"/>
  <path class="st0" d="M33.51,11.96c-.3-.08-.62-.06-.9.08h0c-.43.22-.64.72-.5,1.18.02.13.06.25.12.36.18.3.5.49.85.49.4-.01.76-.2,1-.52.1-.12.17-.25.2-.4.02-.12.02-.25,0-.37,0-.1-.03-.19-.07-.28-.14-.28-.4-.48-.7-.54Z"/>
  <path class="st0" d="M51.76,12.45h-4.31c-2.84,0-5.68.07-8.52.1-1,0-1.22,1.57-.13,1.58,2.84,0,5.67.09,8.51.1h4.19c1.44.08,2.88.08,4.32,0,1.15-.12,1.42-1.68.14-1.82-1.4-.06-2.8-.05-4.2.04Z"/>
  <path class="st0" d="M40.51,149.79c.52-.33.12-1.12-.42-.8-1.68,1.1-2.44,3.16-1.88,5.09.73,2.07,2.64,3.49,4.83,3.6,2.42.32,4.8-.87,6-3,1.44-2.65.45-5.97-2.2-7.4-.56-.3-1.17-.51-1.8-.6-1.54-.23-3.11.18-4.34,1.13-.22.26-.19.64.06.86.14.12.32.17.5.14,1.74-.58,3.58-1,5.16.18,1.33.99,1.9,2.71,1.41,4.29-.55,1.66-2.08,2.81-3.83,2.86-1.65.15-3.25-.59-4.21-1.93-.94-1.44-.63-3.36.72-4.42Z"/>
  <path class="st0" d="M72,63.99c0-1,0-2.06-.08-3.09-.12-1.88-.29-3.84-1.45-5.41-2.42-3.26-6.86-3.06-10.46-2.68-.37,0-.69.28-.74.65-.02.35.26.65.61.67.01,0,.02,0,.03,0,3.09-.27,7.3-.62,9.3,2.36.78,1.47,1.18,3.12,1.15,4.79.07,1,.09,2,.08,2.94v1.45c0,.45-.13.87.15,1.26.18.29.55.37.84.2.04-.02.07-.05.1-.08.62-.75.45-2.1.47-3.06Z"/>
  <path class="st0" d="M58.79,111.25c.56,0,1.12.06,1.69.07,1,0,2.09,0,3.14-.07,1.93.04,3.84-.5,5.47-1.53,3.26-2.46,3-6.93,2.64-10.55-.09-.85-1.43-.48-1.36.34.27,3,.59,7.27-2.39,9.17-1.5.76-3.17,1.14-4.85,1.09-.93.05-1.85.07-2.78.06h-1.45c-.44-.09-.89-.04-1.29.16-.29.14-.41.5-.27.79.02.04.05.08.08.12.39.29.88.42,1.37.35Z"/>
  <path class="st0" d="M14.22,99.85c0,1,0,2.07.08,3.1.12,1.88.29,3.84,1.45,5.4,2.42,3.26,6.86,3.06,10.46,2.69.37-.01.69-.29.74-.66.02-.35-.25-.64-.6-.66-.01,0-.03,0-.04,0-3.09.27-7.3.61-9.3-2.37-.78-1.47-1.18-3.12-1.14-4.79-.07-.98-.1-1.96-.09-2.94v-1.45c.11-.42.05-.87-.15-1.26-.18-.28-.56-.37-.84-.19-.04.02-.07.05-.1.08-.62.75-.45,2.1-.47,3.05Z"/>
  <path class="st0" d="M27.32,54.05c.44.09.89.04,1.29-.16.29-.14.41-.5.27-.79-.02-.04-.05-.08-.08-.12-.39-.3-.88-.44-1.37-.39-.56,0-1.12-.06-1.69-.07-1,0-2.09,0-3.13.07-1.94-.04-3.84.5-5.48,1.54-3.26,2.46-3,6.93-2.64,10.54.09.86,1.43.48,1.36-.33-.26-3-.59-7.27,2.39-9.18,1.5-.76,3.17-1.13,4.85-1.08.93-.06,1.85-.08,2.78-.07l1.45.04Z"/>
  <path class="st0" d="M33.2,62.03c0-.32-.38-.5-.66-.52-1.4-.06-2.81-.06-4.22-.06s-2.81.11-4.22.14c-.7,0-.86,1-.29,1.16-.33,1.35-.51,2.72-.53,4.11,0,.73,0,1.45.1,2.17,0,.33.04.66.12,1,.05.4,0,.79,0,1.19s.43.58.75.6c2.52.14,5.04.11,7.55-.09.43,0,.8-.33.86-.76.56-2.95.74-5.95.54-8.94ZM24.94,70.2c-.07-.17-.12-.34-.15-.52-.06-.33-.1-.67-.14-1-.07-.66-.11-1.33-.11-2-.01-1.34.09-2.68.29-4,2.31-.1,4.65,0,7,.14.09,2.45-.09,4.91-.56,7.32-2.13.12-4.23.12-6.33.06Z"/>
  <path class="st0" d="M54.3,71.02c.19.54.71.89,1.28.87.75,0,1.52,0,2.27-.08l2.33-.1c.84-.1,1.68-.1,2.52,0,.42.09.83-.17.92-.58,0-.02,0-.04.01-.07,0-1.64,0-3.27-.08-4.91,0-.78-.08-1.56-.13-2.33.03-.73-.07-1.47-.28-2.17-.3-.6-.95-.93-1.61-.84-.78,0-1.56.06-2.33.09l-2.33.08c-.82-.03-1.65.02-2.46.14-.17.05-.31.18-.37.35-.3-.08-.62.09-.7.4-.01.04-.02.07-.02.11-.09,1.55-.05,3.11.11,4.65.1.79.21,1.58.37,2.36.11.69.28,1.37.5,2.03ZM56.4,62.11h4.11c.33-.02.67-.02,1,0,.27,0,.25.16.29.43.17,1.37.18,2.78.23,4.15s.08,2.53.11,3.8c-.51.06-1,0-1.56.07l-2,.08-2,.1c-.33.05-.67.05-1,0-.23-.07-.23-.41-.27-.63-.49-2.67-.77-5.37-.84-8.08.64.08,1.29.1,1.93.08Z"/>
  <path class="st0" d="M30.32,102.36c.54.05,1.09-.03,1.6-.23.4-.24.66-.65.7-1.11.1-.65.11-1.32.15-2,.09-1.32.17-2.64.26-4,.06-1,.09-2.11-.94-2.61-.58-.23-1.21-.32-1.83-.29l-2-.1c-1.5-.07-3-.14-4.48-.25-.11,0-.22.02-.32.08-.32-.08-.64.1-.72.42-.01.04-.02.08-.02.12-.07,2.55.07,5.1.4,7.63.15,1.06.17,2.34,1.51,2.44,1.28.05,2.57.01,3.85-.1.58.03,1.21.02,1.84,0ZM25.7,101.23c-.23,0-.94.15-1.07,0-.09-.25-.13-.51-.12-.78l-.09-.83c-.24-2.2-.43-4.4-.51-6.61,2,.08,4.1.23,6.15.37.42,0,.84.04,1.26.12.49.12.53.49.51.94,0,1.08-.14,2.17-.22,3.25s-.08,2.11-.21,3.15c0,.22,0,.23-.19.3-.21.03-.42.03-.63,0h-1.69c-1.06.08-2.12.05-3.19.09Z"/>
  <path class="st0" d="M48.64,80.98c0-1.29,0-2.57.07-3.85,0-.91.22-2.34-.41-3.1s-2.05-.6-3-.54l-3.68.2c-.76,0-2.19.42-2.61-.45-.16-.44-.24-.92-.22-1.39v-2c0-2.55.09-5.11.22-7.66,0-.69-1-.62-1.06,0-.39,2.54-.6,5.1-.61,7.67,0,1.74-.45,4.72,1.73,5.38,1.06.19,2.14.19,3.2,0l3.92-.25c.13,0,.65-.1.75,0s0,.21,0,.28c0,.62-.09,1.24-.1,1.86,0,1.28-.08,2.56-.11,3.85s1.89,1.17,1.91,0Z"/>
  <path class="st0" d="M43.7,68.55c.31-.03.56-.28.6-.59.18-1.94.2-3.89.07-5.83,0-.34-.27-.61-.61-.61s-.61.27-.61.61c-.2,1.99-.24,4-.1,6,.08.29.36.47.65.42Z"/>
  <path class="st0" d="M48.94,62.13c-.04-.33-.35-.57-.68-.53-.28.04-.49.25-.53.53-.2,1.99-.24,4-.11,6,.07.3.36.49.66.44.31-.04.55-.28.59-.59.19-1.94.21-3.9.07-5.85Z"/>
  <path class="st0" d="M50.51,97.05c-.2,1.99-.24,4-.11,6,.07.3.36.49.66.45.31-.04.56-.29.6-.6.18-1.94.2-3.88.06-5.82-.03-.34-.33-.58-.67-.55-.28.03-.5.24-.54.52Z"/>
  <path class="st0" d="M55.1,97.05c-.2,1.99-.24,4-.11,6,.07.3.36.49.66.45.31-.04.56-.29.6-.6.18-1.94.2-3.88.06-5.82-.03-.34-.33-.58-.67-.55-.28.03-.5.24-.54.52Z"/>
  <path class="st0" d="M60.23,93.9c.28,0,.36.07.38.36.02.33.02.67,0,1-.06,2.24.1,4.49,0,6.73,0,1.07,1.59.87,1.52-.18-.14-2.26-.06-4.53-.19-6.79,0-.82,0-1.74-.82-2.15-.92-.27-1.88-.36-2.83-.27l-3.33-.13c-1,.03-2.01-.02-3-.15-.5-.09-.68-.33-.77-.83-.08-.47-.13-.94-.16-1.42-.1-1.17-.1-2.34,0-3.51.07-.67-.95-.62-1,0-.19,1.13-.29,2.28-.28,3.43-.1.93.06,1.88.45,2.73.49.58,1.24.9,2,.85,1.07.08,2.14.09,3.21.13l3.2.14c.54-.01,1.08,0,1.62.06Z"/>
  <path class="st0" d="M53.51,75.45h7.22c.2-.03.4,0,.58.07.15.11.11.31.1.48,0,.35-.07.7-.1,1,0,.68-.11,1.36-.17,2s-.08,1.36-.12,2c-.11.73-.11,1.46,0,2.19.14.64,1,.55,1.24,0,.22-.77.35-1.56.37-2.36.07-.79.15-1.57.2-2.37s.13-1.57.16-2.36c.09-.65-.15-1.31-.64-1.75-.49-.31-1.08-.44-1.66-.38l-2.37.08c-1.58.06-3.17.16-4.75.26-.71.08-.87,1.14-.06,1.14Z"/>
  <path class="st0" d="M55.95,79.93c.12-.72-1.08-.82-1.25-.17-.41,1.53-.67,3.09-.77,4.67-.16,1.4-.04,2.81.37,4.16.21.56.67.99,1.25,1.17.74.11,1.49.08,2.21-.09l2.3-.27c.83-.04,1.66-.13,2.48-.28.3-.02.52-.28.51-.58-.02-.3-.28-.52-.58-.5-.67,0-1.34.05-2,.14l-2,.13c-.65,0-1.33.13-2,.11-.49,0-.62-.32-.7-.76-.07-.54-.11-1.09-.11-1.64v-2.1c0-1.34.09-2.67.29-3.99Z"/>
  <path class="st0" d="M38.68,97.97h1.14l2.24.09c1.52.06,3,.08,4.57.12.92,0,1.09-1.37.11-1.42-2.66-.15-5.33-.37-8-.38-.53-.03-1.06.13-1.48.47-.41.43-.61,1.01-.55,1.6v1.93c0,.65-.1,1.61.59,2,.28.14.61.09.85-.11.7-.53.47-1.65.43-2.4l-.07-1.22c0-.19-.07-.46-.06-.68h.23Z"/>
  <path class="st0" d="M34.73,86.8h9.79c0,.82,0,1.64.08,2.46,0,.48.08,1,.12,1.45.08.46.12.92.12,1.38h-1.02l-1.43-.09c-1-.06-2-.17-3.06-.22-.36-.03-.67.24-.7.6-.03.36.24.67.6.7h0c1.19.06,2.39,0,3.58.09l1.74.07c.45.07.9-.07,1.22-.39.22-.39.3-.85.23-1.29v-1.78c0-1.25,0-2.5-.12-3.75-.07-.3-.33-.51-.64-.5-3.47.07-7,0-10.42,0-.85-.08-1.02,1.26-.09,1.27Z"/>
  <path class="st0" d="M36.09,81.39h1.91c1.33,0,2.66,0,4-.09.93,0,1.12-1.42.12-1.45-1.33-.05-2.65-.08-4-.1h-1.91c-.67,0-1.64-.13-2.16.37-.29.24-.34.68-.1.97,0,0,.02.02.03.03.47.42,1.53.33,2.11.27Z"/>
  <path class="st0" d="M23.32,87.79c.93,0,1.86-.09,2.8-.09s1.85.08,2.78.09c.42,0,.78-.31.83-.73.19-1.73.28-3.47.26-5.21,0-1.73-.08-3.48.07-5.21.07-.8-1.16-.74-1.26,0-.22,1.73-.34,3.46-.4,5.2,0,1.51-.06,3-.16,4.51-.67,0-1.35.07-2,.07-.93,0-1.86,0-2.79-.07s-1.11,1.49-.13,1.44Z"/>
  <path class="st0" d="M24.71,76.5c-.39,0-.72.29-.77.68-.13.66-.22,1.33-.26,2-.08.69-.04,1.39.11,2.07.09.36.43.59.8.54.38-.04.68-.34.72-.72.02-.36.02-.73,0-1.09v-.83c0-.64.03-1.28.11-1.92.05-.35-.19-.68-.54-.73-.06,0-.11,0-.17,0Z"/>
</svg>