<svg viewBox="0 0 110 135" xmlns="http://www.w3.org/2000/svg"><g fill="#ccc"><path d="m48.13 44.23c.02.46.02.93.05 1.39.02.45.09.91.07 1.35-.09.08-.08.24.07.24 4.58-.02 9.16-.01 13.75.08.13 0 .22-.07.27-.17.02-.02.04-.06.04-.1-.01-.23.02-.48.02-.71.01-.24.01-.48 0-.71-.02-.42-.05-.84-.1-1.25.12-.16.09-.43-.18-.43-4.57-.05-9.14-.02-13.7.17-.11-.06-.28 0-.27.14zm13.8.22c0 .39-.01.78 0 1.18.01.38.05.75.06 1.14-4.45-.05-8.9-.01-13.35.16 0-.2.01-.41.02-.61 0-.24 0-.48-.01-.71-.02-.41-.07-.82-.14-1.23 4.48-.02 8.95-.01 13.43.07z"/><path d="m45.99 41.85c-.1-.07-.3 0-.29.14.03 1.23.05 2.45.09 3.67.03 1.22.11 2.45.09 3.67v.02c-.12.06-.14.27.04.26 6.13-.18 12.27-.2 18.41 0 .12 0 .2-.06.25-.14.11.09.32.04.32-.14-.02-1.25.03-2.5 0-3.75-.04-1.21-.11-2.43-.2-3.64 0-.05-.04-.09-.07-.11 0-.12-.08-.23-.25-.23-6.13-.17-12.25-.11-18.36.25zm18.34.28c.03 1.18.05 2.34.08 3.52.03 1.16.1 2.31.09 3.46-.04-.02-.09-.05-.14-.05-6.04-.16-12.07-.11-18.1.23-.02-1.24.03-2.48 0-3.72-.04-1.16-.1-2.3-.19-3.45 6.08-.18 12.18-.2 18.25 0h.02z"/><path d="m41.43 107.27c.16-.5.11-1.05.11-1.59.01-.59.02-1.16.02-1.75.02-1.19.04-2.39.05-3.57.03-2.36.07-4.73.11-7.09 0-.14-.07-.22-.16-.27.36-.93 1.05-1.39 2.02-1.52 1.11-.15 2.26-.09 3.38-.11 2.59-.05 5.17-.11 7.75-.14 2.59-.03 5.17-.03 7.75.04 1.27.03 2.54.07 3.81.14.85.05 2.79-.18 3.09.91.1.35.68.19.57-.14-.27-.84-1.05-1.16-1.92-1.27.09-2.01-.02-4.04-.05-6.05-.03-1.87-.06-3.73-.09-5.61-.05-3.59-.07-7.17-.11-10.75-.05-5.32-.09-10.66-.14-15.98.57-.05 1.25-.14 1.61-.59.34-.43.23-.99-.12-1.36-.38-.39-.95-.48-1.5-.49 0-.88-.02-1.76-.02-2.64-.02-2.88-.07-5.77-.11-8.64.6-.06 1.37-.11 1.76-.61.34-.43.23-.99-.12-1.36-.41-.43-1.07-.49-1.68-.5-.01-.64-.02-1.28-.03-1.91.59 0 1.17-.01 1.75-.04.32-.02.39-.44.09-.51 0-.04 0-.09 0-.13 0-.16.01-.34.02-.5.01-.32.01-.64.02-.97 0-.61-.03-1.2-.07-1.8.21-.04.3-.27.2-.41 0-.11-.05-.23-.19-.27-3.83-1.32-7.7-2.6-11.76-3-3.81-.37-7.68.07-11.36 1.13-2.06.59-4.05 1.39-5.93 2.41-.09.05-.11.11-.12.18v.02c-.04.04-.07.08-.07.14-.02.64-.04 1.29-.05 1.93-.01.31-.02.62-.04.93-.01.16-.02.34-.03.5-.01.17-.05.33.1.45.02.02.05.04.08.05.01.08.07.15.19.14.73-.03 1.45-.05 2.17-.08-.03.7-.03 1.41-.02 2.11-.2.02-.41.03-.62.05-.04-.05-.11-.07-.2-.05-.5.15-.82.62-.86 1.14-.05.62.29.8.8.96.31.1.61.15.91.18.02.48.02.98.04 1.45.03 1.86.05 3.73.07 5.59.02 1.46.02 2.92.04 4.39-.27.02-.54.04-.81.07-.04-.05-.11-.07-.2-.05-.5.15-.82.62-.86 1.14-.05.62.29.8.8.96.36.11.72.17 1.07.2.01 1.34.02 2.68.02 4.03.05 7 .05 14.02.1 21.02.02 4.38.09 8.75.16 13.14 0 .23.36.21.36 0-.05-12.73.07-25.45.05-38.18.35 0 .7-.02 1.07-.02h3.27c4.48-.01 8.97.01 13.45-.07 1.99-.04 4.03.08 6.02-.12 0 8.52 0 17.03.07 25.55.02 2.09.05 4.17.07 6.26.03 2.15-.02 4.32.16 6.47-.57-.03-1.13-.01-1.57-.03-2.33-.11-4.66-.15-6.99-.16-4.73-.01-9.47.1-14.2.27-1.54.05-2.98.36-3.41 2.03v.04c-.09.05-.17.14-.17.27-.04 2.36-.07 4.73-.09 7.09-.02 1.15-.03 2.3-.05 3.45-.01.59-.02 1.16-.02 1.75-.01.55-.11 1.18.05 1.71.07.23.41.23.48 0h.02zm27.31-74.98c-.01.31-.02.62-.04.93-.01.16-.02.34-.03.5v.07c-.84-.06-1.68-.09-2.52-.09 0-.16.01-.32.02-.48.01-.32.01-.64.02-.97 0-.59-.02-1.18-.07-1.77.9.02 1.8.02 2.68-.01-.02.61-.04 1.21-.05 1.81v.02zm-25.75-1.61c.72-.02 1.43-.05 2.16-.07 0 .02-.02.04-.02.05-.02.64-.04 1.29-.05 1.93-.01.31-.02.62-.04.93-.01.16-.02.34-.03.5v.02c-.66.02-1.31.05-1.96.09v-.09c0-.16.01-.34.02-.5.01-.32.01-.64.02-.97 0-.63-.03-1.25-.08-1.89zm2.16 3.83c.09.05.2.05.29-.01 3.09-.09 6.18-.16 9.27-.2 2.37-.02 4.74-.03 7.11-.02 1.74.01 3.5.11 5.25.12v1.92h-.21c-1.14 0-2.28 0-3.42.01l-14.25.14c-2 .02-4.03.04-6.04.18-.02-.69-.05-1.39-.11-2.07.7-.02 1.39-.05 2.08-.07h.02zm.41-3.9s0-.01 0-.02c.71-.02 1.43-.05 2.14-.07-.02.59-.04 1.17-.05 1.76-.01.31-.02.62-.04.93-.01.16-.02.34-.03.5 0 .08-.02.15-.01.23-.65.02-1.3.05-1.95.07 0-.16.01-.32.02-.49.01-.32.01-.64.02-.97 0-.66-.03-1.3-.09-1.95zm2.58-.09c.71-.02 1.41-.04 2.12-.05-.02.61-.04 1.21-.05 1.82-.01.31-.02.62-.04.93-.01.16-.02.34-.03.5 0 .05 0 .1-.01.15-.66.02-1.32.04-1.97.05.01-.07.02-.13.02-.2 0-.16.01-.34.02-.5.01-.32.01-.64.02-.97 0-.58-.02-1.16-.07-1.73zm2.56-.06c.71-.02 1.42-.02 2.13-.04-.02.62-.04 1.24-.05 1.86-.01.31-.02.62-.04.93-.01.16-.02.34-.03.5v.09c-.66.02-1.31.02-1.96.04 0-.04 0-.09 0-.13 0-.16.01-.34.02-.5.01-.32.01-.64.02-.97 0-.6-.03-1.2-.07-1.8zm2.57-.04c.48 0 .96-.02 1.45-.02h.69c-.02.63-.04 1.27-.05 1.89-.01.31-.02.62-.04.93-.01.16-.02.34-.03.5v.05c-.18 0-.35 0-.52 0-.48 0-.96.02-1.44.02v-.07c0-.16.01-.34.02-.5.01-.32.01-.64.02-.97m2.46-1.86c.71 0 1.43-.01 2.14-.02-.02.64-.04 1.27-.05 1.91-.01.31-.02.62-.04.93-.01.16-.02.34-.03.5v.02c-.66 0-1.31.01-1.96.02v-.04c0-.16.01-.34.02-.5.01-.32.01-.64.02-.97 0-.62-.03-1.25-.08-1.86zm2.57-.02h2.14c-.02.64-.04 1.27-.05 1.91-.01.31-.02.62-.04.93-.01.16-.02.34-.03.5s-1.96.01-1.96.01v-.02c0-.16.01-.34.02-.5.01-.32.01-.64.02-.97 0-.63-.03-1.25-.08-1.88zm2.57.01h.86c.43 0 .86.01 1.28.02-.02.63-.04 1.25-.05 1.89-.01.31-.02.62-.04.93-.01.16-.02.34-.03.5-.38 0-.75 0-1.12 0h-.84c0-.18.01-.35.02-.51.01-.32.01-.64.02-.97 0-.63-.03-1.25-.08-1.88zm2.57.03c.71.02 1.42.05 2.14.07-.02.61-.04 1.21-.05 1.81-.01.31-.02.62-.04.93-.01.16-.02.32-.03.48-.66 0-1.31.01-1.96.02 0-.16.01-.33.02-.5.01-.32.01-.64.02-.97 0-.61-.03-1.23-.08-1.84zm-12.56-2.95c3.91-.5 7.8-.15 11.61.84 1.7.44 3.36.98 5.02 1.54-1.91-.07-3.86 0-5.75-.01-2.37 0-4.74.01-7.11.05-4.52.07-9.04.21-13.55.45 3.09-1.45 6.41-2.43 9.78-2.86zm-10.52 6.8c.02-.07.02-.14.02-.23 0-.16.01-.34.02-.5.01-.32.01-.64.02-.97 0-.6-.03-1.2-.07-1.8.71-.03 1.42-.05 2.13-.08-.02.64-.04 1.27-.05 1.91-.01.31-.02.62-.04.93-.01.16-.02.34-.03.5 0 .05 0 .09-.01.13-.66.03-1.32.06-1.98.09zm1.96 4.33c-.23-.03-.45-.08-.68-.16-.27-.09-.49-.09-.56-.5-.05-.3.18-.72.47-.82.05-.02.07-.04.1-.07.21-.02.43-.02.64-.04.26-.02.52-.04.79-.05 1.37-.05 2.75-.04 4.11-.07 1.85-.05 3.7-.06 5.55-.09 3.73-.05 7.46-.01 11.19.03.93.01 1.86.02 2.79.02h.64c.23 0 .46.02.68.07.5.11 1.04.62.48 1.09-.17.14-.84.18-1.11.21h-.04c-.14.02-.27.03-.41.05-.28.02-.57.05-.85.05-.88.04-1.77 0-2.64.02-3.71.05-7.43.17-11.14.21-2.1.02-4.2.03-6.3.03-.98 0-1.95 0-2.93.03h-.02c-.27.01-.52 0-.77-.04zm24.68 11.48h-.23c-1.14 0-2.28 0-3.42.01-2.25.02-4.5.05-6.74.07-2.5.02-5 .05-7.5.07-1.95.02-3.95.03-5.92.16 0-1.07 0-2.12-.01-3.18-.02-2.09-.04-4.16-.06-6.25-.01-.64-.01-1.27-.01-1.91.38 0 .76-.02 1.16-.02h3.27c4.48-.01 8.97.01 13.45-.07 1.98-.04 4.02.08 6-.11.01 3.75.02 7.5.01 11.25zm0 1.95c-.29.02-.57.05-.86.06-.88.04-1.77 0-2.64.02-3.71.05-7.43.17-11.14.21-2.1.02-4.2.03-6.3.03-.95 0-1.91 0-2.86.03h-.07c-.22.01-.43 0-.63-.02-.29-.02-.56-.07-.85-.17-.27-.09-.49-.09-.56-.5-.05-.3.18-.72.47-.82.05-.02.07-.04.1-.07.27-.02.55-.04.82-.05.23-.01.46-.02.7-.04 1.34-.05 2.68-.03 4.02-.07 1.85-.05 3.7-.06 5.55-.09 3.73-.05 7.46-.01 11.19.03.93.01 1.86.02 2.79.02h.27.54c.18.01.35.02.52.06.5.11 1.04.62.48 1.09-.15.12-.68.16-1 .2-.05 0-.08.01-.11.02-.14.02-.29.04-.44.05h.01z"/><path d="m70.12 105.93v-1.73c0-1.25.01-2.48.02-3.73.02-2.47.02-4.95.01-7.41 0-.43-.68-.41-.67 0 .02 2.47.01 4.95 0 7.41 0 1.25-.01 2.48-.01 3.73v1.73c0 .48-.05 1.02.04 1.5-2.27-.05-4.54.05-6.8.06-2.38 0-4.75 0-7.12-.01-4.73-.02-9.46-.01-14.19.08-.41.01-.5.64-.05.64 4.73-.05 9.45.01 14.18.05 2.33.02 4.66.04 7 .05 2.39.01 4.8.11 7.18-.03.41-.02.57-.48.37-.71.12-.52.05-1.09.05-1.63z"/><path d="m49.56 68.57c3.77-.02 7.55.07 11.32-.1.08 0 .13-.06.14-.12.02-.02.02-.05.02-.09-.05-4.18-.03-8.35-.27-12.52 0-.03-.01-.06-.02-.08.02-.14-.05-.28-.25-.29-3.6-.14-7.18-.09-10.77.23-.1-.06-.29 0-.29.14.05 2.1 0 4.21-.01 6.31 0 2.02.04 4.03.02 6.05-.2.13-.19.48.11.48zm10.86-12.67c.05 2.03.06 4.06.1 6.09.04 2.07.16 4.13.14 6.2-3.61 0-7.23-.12-10.84-.14-.03-4.05.19-8.11-.04-12.16 3.54-.14 7.1-.15 10.64.02z"/><path d="m51.38 66.54c0 .07.02.11.07.14.02.04.05.07.11.07 2.43 0 4.88.11 7.31.18.3.01.39-.41.16-.51-.04-2.91.09-5.86-.21-8.77.04-.14-.03-.32-.23-.32-2.41-.04-4.8.01-7.2.18-.05 0-.09.04-.11.07-.04.04-.07.09-.07.14.09 1.47.04 2.96.07 4.43.03 1.46.14 2.92.11 4.38zm7.1-8.68c.07 1.43.04 2.86.06 4.29.02 1.41.13 2.82.11 4.23-1.13-.02-2.27-.05-3.39-.05-1.17-.01-2.32.05-3.48.12-.04-2.88.09-5.8-.2-8.66 2.3 0 4.61 0 6.91.07z"/><path d="m49.06 86.93c2.09.01 4.18.02 6.27.02 1.05 0 2.09.01 3.14.02.96 0 2.04.12 2.99-.07.31-.06.41-.57.05-.64-.95-.18-2.02-.05-2.98-.05-1.05 0-2.09.02-3.14.03-2.09.02-4.18.04-6.27.07-.41 0-.48.62-.05.62z"/><path d="m55.31 80.74c.91 0 1.82.01 2.72.02h1.25c.44 0 .93.07 1.34-.07.3-.1.38-.48.05-.61-.41-.15-.9-.08-1.34-.07-.42 0-.84 0-1.25 0l-2.73.02c-1.82.01-3.64.05-5.45.09-.34 0-.41.52-.04.54 1.81.04 3.62.08 5.43.09z"/><path d="m49.85 82.07c1.82.02 3.64.1 5.45.11.91 0 1.82 0 2.73.01.86 0 1.77.09 2.61-.06.3-.05.38-.54.05-.61-.84-.16-1.75-.06-2.6-.06-.91 0-1.82 0-2.73.01-1.82 0-3.65.09-5.47.11-.32 0-.39.5-.04.5z"/></g></svg>